<?xml version="1.0" standalone="no"?>
<!DOCTYPE svg PUBLIC "-//W3C//DTD SVG 20010904//EN"
 "http://www.w3.org/TR/2001/REC-SVG-20010904/DTD/svg10.dtd">
<svg version="1.0" xmlns="http://www.w3.org/2000/svg"
 width="512.000000pt" height="512.000000pt" viewBox="0 0 512.000000 512.000000"
 preserveAspectRatio="xMidYMid meet">
<metadata>
Created by potrace 1.14, written by Peter Selinger 2001-2017
</metadata>
<g transform="translate(0.000000,512.000000) scale(0.100000,-0.100000)"
fill="#000000" stroke="none">
<path d="M2290 4944 c-697 -29 -1238 -146 -1512 -327 -164 -109 -268 -279
-268 -438 0 -147 51 -404 120 -604 39 -112 139 -332 191 -417 l22 -37 -55 -60
c-248 -268 -62 -499 512 -635 l96 -23 94 -97 c52 -54 95 -102 95 -106 0 -5
-45 -31 -100 -59 -106 -53 -171 -105 -181 -147 -26 -103 152 -166 549 -196
l158 -12 155 -158 c86 -88 154 -161 152 -163 -2 -2 -53 -11 -113 -20 -259 -38
-505 -95 -731 -170 -130 -42 -201 -73 -144 -61 60 12 285 37 405 45 72 4 271
9 442 10 288 1 314 0 330 -16 33 -33 189 -237 240 -313 141 -212 234 -397 308
-614 l51 -149 82 -2 c45 -1 86 1 91 4 13 8 -49 218 -104 354 -84 204 -223 447
-365 634 -27 36 -50 70 -50 74 0 10 61 4 270 -28 351 -53 594 -136 734 -250
l27 -21 -49 -149 c-69 -207 -145 -372 -270 -583 l-21 -35 106 0 107 0 58 111
58 111 71 12 c154 25 365 95 466 153 132 77 183 157 191 301 7 142 -26 245
-126 397 -68 104 -142 185 -270 299 l-73 64 3 121 3 121 30 3 c17 2 66 12 111
22 389 91 422 275 72 405 -51 19 -134 44 -184 56 l-91 21 -12 96 c-30 238 -51
481 -57 642 l-7 175 74 19 c287 73 500 190 550 301 24 52 24 119 -1 173 -43
94 -191 211 -380 299 -52 25 -97 47 -99 49 -2 2 11 44 28 93 18 50 35 114 38
144 11 108 -50 239 -147 316 -152 121 -437 207 -810 246 -149 16 -670 27 -870
19z m795 -194 c388 -35 672 -120 792 -235 72 -70 76 -100 33 -227 -24 -68 -39
-98 -50 -98 -8 0 -53 12 -100 25 -206 61 -497 108 -788 127 -198 12 -545 2
-722 -22 -106 -15 -334 -60 -342 -69 -5 -4 36 -8 90 -9 316 -8 720 -57 982
-118 401 -94 653 -225 757 -394 20 -33 21 -40 11 -115 -6 -44 -12 -198 -12
-342 -1 -145 -4 -263 -8 -263 -4 0 -10 5 -13 10 -8 12 -107 65 -184 97 -350
147 -1003 120 -1631 -68 -74 -22 -136 -42 -138 -44 -2 -2 48 -1 110 2 132 6
476 -11 668 -32 124 -14 455 -73 525 -94 38 -11 28 -14 -110 -36 -147 -23
-342 -73 -499 -129 -72 -26 -132 -49 -135 -52 -3 -3 23 -3 59 1 179 17 538 10
745 -15 304 -37 556 -121 645 -215 l35 -37 -45 5 c-323 42 -974 31 -1375 -24
-148 -20 -349 -58 -470 -88 l-120 -31 -93 93 c-91 90 -284 299 -390 424 l-54
63 16 54 c9 30 36 81 62 115 208 277 835 446 1739 468 l260 6 -70 19 c-117 30
-323 66 -449 78 -147 13 -486 14 -626 0 -429 -41 -854 -159 -1130 -315 -34
-19 -62 -30 -66 -24 -7 13 5 83 22 124 15 38 74 117 112 152 88 80 224 152
399 209 272 90 552 127 907 122 l228 -3 -73 23 c-220 68 -549 141 -789 177
-349 52 -661 44 -852 -21 -39 -13 -73 -22 -75 -20 -8 8 132 127 211 180 263
177 698 307 1161 346 72 6 153 13 180 15 28 3 84 5 125 6 l75 1 -110 29 c-182
48 -607 121 -753 130 -80 5 318 42 558 53 145 6 646 -3 765 -14z m390 -2500
c107 -11 298 -50 334 -69 14 -8 20 -33 29 -133 18 -196 25 -308 19 -308 -3 0
-50 22 -104 49 -94 47 -256 111 -317 127 -23 5 -2 -18 90 -99 138 -122 243
-227 227 -227 -6 0 -54 16 -107 35 -132 48 -354 103 -511 126 -156 24 -439 36
-475 21 l-25 -11 26 0 c52 -2 262 -62 398 -115 144 -57 313 -139 411 -201 64
-40 60 -41 -85 -15 -163 30 -415 50 -635 50 l-196 0 -64 72 c-36 40 -154 164
-263 275 -125 127 -196 206 -192 214 4 6 40 26 79 44 299 138 898 210 1361
165z"/>
</g>
</svg>
